<svg xmlns="http://www.w3.org/2000/svg" viewBox="0 0 22 22"><defs><style>.cls-1{fill:#fff;}</style></defs><g id="Layer_2" data-name="Layer 2"><g id="Layer_1-2" data-name="Layer 1"><path class="cls-1" d="M11,0A11,11,0,1,0,22,11,11,11,0,0,0,11,0Zm3.05,6.52a.16.16,0,0,1-.16.17H12.56a.59.59,0,0,0-.59.59V8.66h1.89a.17.17,0,0,1,.16.18l-.16,2a.17.17,0,0,1-.17.15H12v6.48a.16.16,0,0,1-.16.16H9.44a.16.16,0,0,1-.16-.16V11H8.09a.17.17,0,0,1-.16-.17V8.83a.17.17,0,0,1,.16-.17H9.28V6.78a2.37,2.37,0,0,1,2.37-2.37h2.24a.16.16,0,0,1,.16.16Z"/></g></g></svg>