<svg xmlns="http://www.w3.org/2000/svg" viewBox="0 0 431.79 420.05"><defs><style>.cls-1{fill:#f2f2f2;}.cls-2{fill:#fff;}</style></defs><g id="Layer_2" data-name="Layer 2"><g id="Layer_1-2" data-name="Layer 1"><path class="cls-1" d="M431.79,0C304.93,2.2,145.45,38,67.12,93.11c-110.73,78-78,215.8,50.71,240,125.13,23.51,192.25-51.63,314,87Z"/><polygon class="cls-2" points="158.75 150.43 141.08 132.76 123.41 150.44 158.75 150.44 158.75 150.43"/><polygon class="cls-2" points="230.24 132.76 212.57 150.44 247.91 150.44 230.24 132.76"/><polygon class="cls-2" points="185.66 123.53 158.75 150.43 212.56 150.43 185.66 123.53"/><polygon class="cls-2" points="209.73 216.96 209.72 216.96 209.72 216.97 209.73 216.96"/><path class="cls-2" d="M247.91,165.82H212.57v9.3a250.58,250.58,0,0,1-1.27,30.17H160a250.58,250.58,0,0,1-1.27-30.17v-9.3H123.41a124.33,124.33,0,0,0,54.22,102.76C161.87,236,161.6,217,161.6,217h48.13s-.32,19.09-16,51.61A124.35,124.35,0,0,0,247.91,165.82Z"/></g></g></svg>