<svg xmlns="http://www.w3.org/2000/svg" viewBox="0 0 132.86 154.79"><defs><style>.cls-1{fill:#fff;}</style></defs><g id="Layer_2" data-name="Layer 2"><g id="Layer_1-2" data-name="Layer 1"><polygon class="cls-1" points="37.72 28.71 18.86 9.86 0 28.71 37.72 28.71 37.72 28.71"/><polygon class="cls-1" points="114 9.86 95.14 28.71 132.86 28.71 114 9.86"/><polygon class="cls-1" points="66.43 0 37.72 28.71 95.14 28.71 66.43 0"/><polygon class="cls-1" points="92.11 99.71 92.11 99.71 92.11 99.71 92.11 99.71"/><path class="cls-1" d="M132.86,45.13H95.15v9.92a268.72,268.72,0,0,1-1.36,32.21H39.08a268.72,268.72,0,0,1-1.36-32.21V45.13H0A132.7,132.7,0,0,0,57.86,154.79C41,120,40.76,99.71,40.76,99.71H92.11s-.33,20.37-17.1,55.07A132.69,132.69,0,0,0,132.86,45.13Z"/></g></g></svg>