<svg xmlns="http://www.w3.org/2000/svg" viewBox="0 0 21.86 21.86"><defs><style>.cls-1{fill:#fff;}</style></defs><g id="Layer_2" data-name="Layer 2"><g id="Layer_1-2" data-name="Layer 1"><path class="cls-1" d="M10.93,0A10.93,10.93,0,1,0,21.86,10.93,10.94,10.94,0,0,0,10.93,0Zm2.8,17.72H8.26a4.14,4.14,0,0,1-4.14-4.15V8.11A4.14,4.14,0,0,1,8.26,4h5.47a4.14,4.14,0,0,1,4.14,4.15v5.46A4.14,4.14,0,0,1,13.73,17.72Z"/><path class="cls-1" d="M11,8.75a2.18,2.18,0,1,0,2.17,2.18A2.19,2.19,0,0,0,11,8.75Z"/><path class="cls-1" d="M13.73,5.26H8.26A2.85,2.85,0,0,0,5.41,8.11v5.46a2.85,2.85,0,0,0,2.85,2.85h5.47a2.84,2.84,0,0,0,2.84-2.85V8.11A2.84,2.84,0,0,0,13.73,5.26ZM11,14.33a3.4,3.4,0,1,1,3.39-3.4A3.4,3.4,0,0,1,11,14.33Zm3.59-6.22a.81.81,0,1,1,.81-.81A.81.81,0,0,1,14.61,8.11Z"/></g></g></svg>