<svg xmlns="http://www.w3.org/2000/svg" viewBox="0 0 640.64 234.32"><defs><style>.cls-1{fill:#fff;}</style></defs><g id="Layer_2" data-name="Layer 2"><g id="Layer_1-2" data-name="Layer 1"><polygon class="cls-1" points="295.95 24.37 279.94 8.36 263.94 24.37 295.95 24.37 295.95 24.37"/><polygon class="cls-1" points="360.69 8.36 344.69 24.37 376.7 24.37 360.69 8.36"/><polygon class="cls-1" points="320.32 0 295.95 24.37 344.69 24.37 320.32 0"/><polygon class="cls-1" points="342.12 84.63 342.11 84.63 342.11 84.63 342.12 84.63"/><path class="cls-1" d="M376.7,38.31h-32v8.42a228,228,0,0,1-1.15,27.33H297.11A225.79,225.79,0,0,1,296,46.73V38.31h-32A112.65,112.65,0,0,0,313,131.38c-14.27-29.55-14.51-46.76-14.51-46.76h43.58s-.28,17.29-14.51,46.75A112.63,112.63,0,0,0,376.7,38.31Z"/><path class="cls-1" d="M54.08,187c-5.88.61-6.4,1.06-6.4,7.31v28.85c0,6.25.6,6.7,6.4,7.23v2.78H30.8v-2.78c5.95-.76,6.41-1,6.41-7.23V209H16.87v14.16c0,6.25.68,6.62,6.33,7.23v2.78H0v-2.78c5.57-.61,6.4-1,6.4-7.23V194.33c0-6.25-.68-6.85-6.4-7.31v-2.78H23.2V187c-5.73.53-6.33,1.06-6.33,7.31V205.1H37.21V194.33c0-6.25-.76-6.7-6.41-7.31v-2.78H54.08Z"/><path class="cls-1" d="M122.92,220.39c-.38,2-2.49,10.7-3.17,12.8H80.66v-2.71c6.86-.68,7.31-1,7.31-7.38V194.33c0-6.4-.91-6.85-6-7.31v-2.78h24.48c7.91,0,10.54-.08,11.6-.15.07,1.35.45,7.53.75,12.2l-2.94.37c-.67-2.56-2-5.64-3.23-7s-2.34-2-6.18-2h-4.9c-2.86,0-3.16.15-3.16,2.71v15.74h7.38c4.22,0,5-1.13,6.1-6.47h2.94v16.79h-2.94c-1.2-5.57-1.8-6.47-6.17-6.47H98.36V223c0,5.2.15,6.78,4.82,6.85h5.35c4.22,0,5.35-.52,7-2.56a33.49,33.49,0,0,0,4.6-7.53Z"/><path class="cls-1" d="M189.12,233.19v-2.78c5.72-.61,6.1-1.13,6.1-7.91l-.08-29.38c-5.42,13-11.37,27.27-16.79,40.07h-2.49c-4.9-12.27-10.24-26.28-15.66-39.46-1,23.65-1,28.32-1,31,.07,4.07,1.58,5.12,7.23,5.65v2.78H147.77v-2.78c4.29-.38,6.25-1.21,6.85-5.73.3-2.26.6-6.55,2.34-31.4.22-3.62-.3-5.65-6.78-6.26v-2.78h16.27L181,217.45l14.61-33.21h15.9V187c-6,.61-6.71,1.21-6.56,7.23l.61,28.25c.07,6.78.37,7.08,6.47,7.91v2.78Z"/><path class="cls-1" d="M238.67,233.19v-2.78c5.73-.53,6.41-1,6.41-7.31V194.41c0-6.33-.76-6.93-6.41-7.39v-2.78H262V187c-5.65.53-6.41,1.06-6.41,7.39V223.1c0,6.25.68,6.7,6.41,7.31v2.78Z"/><path class="cls-1" d="M341.93,187c-4.59.61-6,1.59-6.25,5-.23,2.93-.45,5.49-.45,12.05v30H331L299.6,196.36v17a112.63,112.63,0,0,0,.38,11.67c.3,3.31,1.88,5.05,7.46,5.35v2.78H288.76v-2.78c4.29-.38,6.17-1.51,6.62-5a98.71,98.71,0,0,0,.46-12V195.53c0-2.48-.15-4.14-1.59-6.1s-3.16-2.1-6.32-2.41v-2.78h14.69l28.69,33.36V204.05c0-6.56-.07-9-.3-11.83-.23-3.24-1.43-4.82-7.68-5.2v-2.78h18.6Z"/><path class="cls-1" d="M418.53,212.56c-4.3.75-4.82,1.05-4.82,6.17v5.8a42.42,42.42,0,0,0,.45,7.31c-3.84.68-12.13,2.48-18.23,2.48-17.7,0-27.87-10.77-27.87-25.68,0-16.95,13.79-25.46,29.83-25.46,6.1,0,12.73,1.51,15.21,1.74.16,3.31.76,9,1.28,13.18l-2.93.52c-1.81-6.4-4.6-9.64-9.27-11.22a22.75,22.75,0,0,0-6.4-.9c-9.11,0-16,7.91-16,20.86,0,13.26,4.67,23.73,17,23.73a9.81,9.81,0,0,0,4.82-1.06c1.13-.68,1.73-2,1.73-4.29v-6.63c0-5.27-1.06-5.8-7.38-6.55v-2.79h22.52Z"/><path class="cls-1" d="M513.73,187c-5.43.68-6.41,1.81-8.51,8-2,5.8-7.61,23.65-12.36,39h-4.21c-3.85-10.84-8.14-22-12.43-33.29C472.3,212.11,468.54,223.1,465,234h-4.37c-3-10.62-7.84-26.21-12.05-39.54-1.89-5.72-3-7-7.61-7.46v-2.78h22.75V187c-5.65.53-5.8,1.66-4.75,5.58,2.49,8.66,5.12,17.47,7.61,25.68,3.84-10.62,7.45-22,10.92-33.67h4c4.14,11.53,8.44,22.75,12.58,33.75,2.78-8.14,6.4-20.72,7.45-25,1.06-4.44.31-5.8-6.17-6.33v-2.78h18.38Z"/><path class="cls-1" d="M555.75,233.19v-2.78c4.75-.68,4.75-1.51,3.69-4.75-.75-2.26-2-5.65-3.08-8.66H541.67c-.83,2.34-1.88,5.2-2.64,7.53-1.58,4.75.23,5.35,6.18,5.88v2.78H526.6v-2.78c4.75-.61,6-1.28,8.52-7.61l15.66-38.94,3.62-.68c4.82,13.11,9.94,26.51,14.84,39.09,2.78,7,3.46,7.53,8.36,8.14v2.78Zm-6.62-36c-2.19,5.42-4.3,10.47-6.18,16h12Z"/><path class="cls-1" d="M640.64,187c-4.82.53-6.56,1.59-9.27,6.18s-5,8.81-8.74,16.34a7.73,7.73,0,0,0-.82,4v9.34c0,6.55.6,6.77,6.78,7.53v2.78H604.78v-2.78c6-.76,6.48-1,6.48-7.53v-8.67a6.5,6.5,0,0,0-.83-3.46c-2.18-4.44-5-9.49-9.49-17.4-2.78-4.89-3.91-5.87-8.28-6.33v-2.78h22.07V187c-5.05.68-4.9,1.66-3.62,4.3,2.49,4.89,5.73,10.92,8.59,16.42,2.26-4.22,5.87-11.45,8-16.05,1.43-3,.83-4-4.59-4.67v-2.78h17.55Z"/></g></g></svg>