<svg xmlns="http://www.w3.org/2000/svg" viewBox="0 0 640.69 344.22"><defs><style>.cls-1{fill:#fff;}</style></defs><g id="Layer_2" data-name="Layer 2"><g id="Layer_1-2" data-name="Layer 1"><polygon class="cls-1" points="293.06 27.31 275.12 9.38 257.18 27.32 293.06 27.32 293.06 27.31"/><polygon class="cls-1" points="365.63 9.38 347.69 27.32 383.57 27.32 365.63 9.38"/><polygon class="cls-1" points="320.37 0 293.06 27.31 347.69 27.31 320.37 0"/><polygon class="cls-1" points="344.8 94.85 344.8 94.85 344.8 94.86 344.8 94.85"/><path class="cls-1" d="M383.57,42.93H347.69v9.44A256.16,256.16,0,0,1,346.4,83h-52a254,254,0,0,1-1.3-30.64V42.93H257.18a126.23,126.23,0,0,0,55,104.32c-16-33.11-16.27-52.4-16.27-52.4H344.8s-.31,19.38-16.26,52.39A126.23,126.23,0,0,0,383.57,42.93Z"/><path class="cls-1" d="M54.13,210.9c-5.87.6-6.4,1-6.4,7.3v28.85c0,6.25.6,6.7,6.4,7.23v2.79H30.86v-2.79c6-.75,6.4-1,6.4-7.23V232.89H16.93v14.16c0,6.25.67,6.63,6.32,7.23v2.79H.05v-2.79c5.58-.6,6.41-1,6.41-7.23V218.2c0-6.25-.68-6.85-6.41-7.3v-2.79h23.2v2.79c-5.72.52-6.32,1-6.32,7.3V229H37.26V218.2c0-6.25-.75-6.7-6.4-7.3v-2.79H54.13Z"/><path class="cls-1" d="M123,244.26c-.38,2-2.49,10.7-3.16,12.81H80.72v-2.71c6.85-.68,7.3-1.06,7.3-7.39V218.2c0-6.4-.9-6.85-6-7.3v-2.79h24.47c7.91,0,10.55-.07,11.6-.15.08,1.36.46,7.53.76,12.2l-2.94.38c-.68-2.56-2-5.65-3.24-7s-2.33-1.95-6.18-1.95h-4.89c-2.86,0-3.16.15-3.16,2.71V230h7.38c4.21,0,5-1.13,6.1-6.48h2.94v16.8H111.9c-1.21-5.58-1.81-6.48-6.18-6.48h-7.3v12.95c0,5.2.15,6.78,4.82,6.86h5.34c4.22,0,5.35-.53,7-2.56a33.67,33.67,0,0,0,4.59-7.53Z"/><path class="cls-1" d="M189.17,257.07v-2.79c5.73-.6,6.1-1.13,6.1-7.91L195.2,217c-5.43,12.95-11.38,27.26-16.8,40.07h-2.48c-4.9-12.28-10.25-26.29-15.67-39.47-1,23.65-1,28.32-1,31,.08,4.07,1.58,5.12,7.23,5.65v2.79H147.82v-2.79c4.3-.38,6.25-1.2,6.86-5.72.3-2.26.6-6.56,2.33-31.41.23-3.62-.3-5.65-6.78-6.25v-2.79H166.5L181,241.33l14.61-33.22h15.89v2.79c-6,.6-6.7,1.2-6.55,7.23l.6,28.24c.08,6.78.38,7.08,6.48,7.91v2.79Z"/><path class="cls-1" d="M238.73,257.07v-2.79c5.72-.53,6.4-1,6.4-7.31V218.28c0-6.33-.75-6.93-6.4-7.38v-2.79H262v2.79c-5.65.52-6.4,1-6.4,7.38V247c0,6.26.68,6.71,6.4,7.31v2.79Z"/><path class="cls-1" d="M342,210.9c-4.6.6-6,1.58-6.26,5-.22,2.94-.45,5.5-.45,12v30h-4.22l-31.4-37.66v17c0,6.55.15,9.49.37,11.67.31,3.32,1.89,5,7.46,5.35v2.79H288.81v-2.79c4.29-.38,6.18-1.51,6.63-5.05a101.62,101.62,0,0,0,.45-12V219.41c0-2.49-.15-4.14-1.58-6.1s-3.16-2.11-6.33-2.41v-2.79h14.69l28.7,33.37V227.92c0-6.55-.08-9-.31-11.83-.22-3.23-1.43-4.82-7.68-5.19v-2.79H342Z"/><path class="cls-1" d="M418.58,236.43c-4.29.75-4.82,1-4.82,6.18v5.8a43.25,43.25,0,0,0,.45,7.3c-3.84.68-12.12,2.49-18.22,2.49-17.7,0-27.87-10.77-27.87-25.69,0-16.94,13.78-25.45,29.83-25.45,6.1,0,12.72,1.5,15.21,1.73.15,3.31.75,9,1.28,13.18l-2.94.53c-1.8-6.41-4.59-9.64-9.26-11.23a22.75,22.75,0,0,0-6.4-.9c-9.12,0-16,7.91-16,20.86,0,13.26,4.67,23.73,17,23.73a9.77,9.77,0,0,0,4.82-1.06c1.13-.67,1.73-2,1.73-4.29V243c0-5.27-1.05-5.8-7.38-6.55v-2.79h22.52Z"/><path class="cls-1" d="M513.78,210.9c-5.42.68-6.4,1.81-8.51,8-2,5.8-7.61,23.65-12.35,39H488.7c-3.84-10.85-8.13-22-12.43-33.29C472.36,236,468.59,247,465.05,257.9h-4.37c-3-10.62-7.83-26.21-12.05-39.55-1.88-5.72-3-7-7.6-7.45v-2.79h22.74v2.79c-5.65.52-5.8,1.65-4.74,5.57,2.48,8.66,5.12,17.48,7.6,25.68,3.84-10.61,7.46-22,10.92-33.66h4c4.15,11.52,8.44,22.74,12.58,33.74,2.79-8.13,6.41-20.71,7.46-25s.3-5.8-6.18-6.32v-2.79h18.38Z"/><path class="cls-1" d="M555.81,257.07v-2.79c4.74-.68,4.74-1.51,3.69-4.74-.75-2.26-2-5.65-3.09-8.67H541.72c-.82,2.34-1.88,5.2-2.63,7.54-1.58,4.74.22,5.34,6.17,5.87v2.79h-18.6v-2.79c4.75-.6,6-1.28,8.51-7.61l15.67-38.94,3.61-.67c4.82,13.1,9.94,26.51,14.84,39.09,2.79,7,3.47,7.53,8.36,8.13v2.79Zm-6.63-36c-2.18,5.42-4.29,10.47-6.18,16h12Z"/><path class="cls-1" d="M640.69,210.9c-4.82.52-6.55,1.58-9.26,6.17s-5,8.82-8.74,16.35a7.69,7.69,0,0,0-.83,4v9.34c0,6.55.6,6.78,6.78,7.53v2.79h-23.8v-2.79c5.95-.75,6.48-1,6.48-7.53v-8.66a6.54,6.54,0,0,0-.83-3.47c-2.19-4.44-5-9.49-9.49-17.4-2.79-4.89-3.92-5.87-8.29-6.32v-2.79h22.07v2.79c-5,.68-4.89,1.65-3.61,4.29,2.48,4.9,5.72,10.92,8.58,16.42,2.26-4.22,5.88-11.45,8-16,1.43-3,.82-4-4.6-4.67v-2.79h17.55Z"/><path class="cls-1" d="M93.83,304.72c-2,.35-2.24.48-2.24,2.86v2.69a20.31,20.31,0,0,0,.21,3.39,53.69,53.69,0,0,1-8.45,1.15c-8.21,0-12.92-5-12.92-11.91,0-7.86,6.39-11.81,13.83-11.81a54.54,54.54,0,0,1,7.06.81c.07,1.53.34,4.19.59,6.11l-1.36.24c-.84-3-2.13-4.47-4.3-5.2a10.45,10.45,0,0,0-3-.42c-4.22,0-7.4,3.67-7.4,9.68s2.16,11,7.89,11a4.61,4.61,0,0,0,2.24-.49c.52-.32.8-.91.8-2v-3.08c0-2.44-.49-2.68-3.42-3v-1.3H93.83Z"/><path class="cls-1" d="M125.23,308.35c-.17.94-1.15,5-1.46,5.94H105.64V313c3.18-.32,3.39-.49,3.39-3.42V296.26c0-3-.42-3.18-2.8-3.38v-1.3h11.35c3.67,0,4.89,0,5.38-.07,0,.63.21,3.5.35,5.66l-1.36.18a8.77,8.77,0,0,0-1.5-3.25c-.63-.7-1.08-.91-2.87-.91h-2.27c-1.32,0-1.46.07-1.46,1.26v7.3h3.42c2,0,2.31-.53,2.83-3h1.36v7.79H120.1c-.56-2.58-.84-3-2.86-3h-3.39v6c0,2.41.07,3.14,2.23,3.17h2.48c2,0,2.48-.24,3.25-1.18a15.91,15.91,0,0,0,2.13-3.5Z"/><path class="cls-1" d="M161.42,292.88c-2.13.28-2.79.73-2.9,2.3-.1,1.36-.21,2.55-.21,5.59v13.9h-1.95l-14.57-17.46v7.89a50.75,50.75,0,0,0,.18,5.41c.14,1.54.87,2.34,3.45,2.48v1.3h-8.66V313c2-.17,2.87-.7,3.08-2.34a46.7,46.7,0,0,0,.21-5.55v-8.28a4.16,4.16,0,0,0-.74-2.83c-.63-.87-1.47-1-2.93-1.11v-1.3h6.81l13.31,15.48v-6.29c0-3,0-4.19-.14-5.48-.11-1.51-.67-2.24-3.57-2.41v-1.3h8.63Z"/><path class="cls-1" d="M193.21,297.63a10.93,10.93,0,0,0-1.5-3.43c-.63-.73-.91-1-3-1H186.5v16.42c0,2.93.35,3.14,3.46,3.38v1.3h-11.6V313c3-.24,3.29-.45,3.29-3.38V293.19h-2.13c-2,0-2.52.31-3.18,1.15a13.2,13.2,0,0,0-1.43,3.32h-1.33c.24-2.55.49-5.27.56-7h1.05c.52.8.94.87,2,.87h14a2.3,2.3,0,0,0,2-.87h1c0,1.47.17,4.54.35,6.81Z"/><path class="cls-1" d="M225.27,308.14c-.28,1.5-1.25,5.2-1.57,6.15H206.38V313c3.07-.21,3.35-.45,3.35-3.38V296.3c0-2.94-.35-3.22-3-3.42v-1.3h10.9v1.3c-2.72.24-3.07.48-3.07,3.42v13.55c0,1.92.07,2.79,2,2.83.07,0,1.67,0,1.81,0,2,0,2.52-.42,3.36-1.36a14.77,14.77,0,0,0,2.2-3.63Z"/><path class="cls-1" d="M255.87,308.35c-.17.94-1.15,5-1.46,5.94H236.28V313c3.18-.32,3.39-.49,3.39-3.42V296.26c0-3-.42-3.18-2.8-3.38v-1.3h11.35c3.67,0,4.89,0,5.38-.07,0,.63.21,3.5.35,5.66l-1.36.18a8.77,8.77,0,0,0-1.5-3.25c-.63-.7-1.08-.91-2.87-.91H246c-1.32,0-1.46.07-1.46,1.26v7.3h3.42c2,0,2.31-.53,2.83-3h1.36v7.79h-1.36c-.56-2.58-.84-3-2.87-3h-3.38v6c0,2.41.07,3.14,2.23,3.17h2.48c2,0,2.48-.24,3.25-1.18a15.91,15.91,0,0,0,2.13-3.5Z"/><path class="cls-1" d="M286.58,314.29V313c2.65-.28,2.83-.52,2.83-3.66l0-13.63c-2.51,6-5.27,12.65-7.79,18.59h-1.15c-2.27-5.7-4.75-12.19-7.27-18.31-.45,11-.45,13.14-.45,14.39,0,1.89.73,2.38,3.35,2.62v1.3H267.4V313c2-.17,2.9-.56,3.18-2.65.14-1,.28-3,1.08-14.57.11-1.67-.14-2.61-3.14-2.89v-1.3h7.54L282.8,307l6.78-15.41H297v1.3c-2.79.28-3.11.55-3,3.35l.28,13.1c0,3.14.18,3.28,3,3.66v1.3Z"/><path class="cls-1" d="M321.44,314.29V313c2.2-.31,2.2-.7,1.71-2.2-.35-1-.91-2.62-1.43-4h-6.81c-.39,1.08-.88,2.41-1.23,3.49-.73,2.2.11,2.48,2.87,2.72v1.3h-8.63V313c2.2-.28,2.76-.59,3.95-3.52l7.26-18.06,1.68-.32c2.23,6.08,4.61,12.3,6.88,18.13,1.29,3.25,1.61,3.49,3.88,3.77v1.3Zm-3.08-16.7c-1,2.52-2,4.86-2.86,7.41h5.55Z"/><path class="cls-1" d="M367,292.88c-2.13.28-2.79.73-2.9,2.3-.1,1.36-.21,2.55-.21,5.59v13.9h-1.95l-14.57-17.46v7.89a50.75,50.75,0,0,0,.18,5.41c.14,1.54.87,2.34,3.45,2.48v1.3h-8.66V313c2-.17,2.87-.7,3.08-2.34a46.7,46.7,0,0,0,.21-5.55v-8.28a4.16,4.16,0,0,0-.74-2.83c-.63-.87-1.47-1-2.93-1.11v-1.3h6.81L362,307.06v-6.29c0-3,0-4.19-.14-5.48-.11-1.51-.67-2.24-3.57-2.41v-1.3H367Z"/><path class="cls-1" d="M409.15,297.35c-.7-2.24-1.68-4.79-4.89-4.79a3.21,3.21,0,0,0-3.35,3.39c0,1.92,1.29,3.07,4.36,4.61,3.74,1.85,6.11,3.67,6.11,7.12,0,4.13-3.42,7.13-8.41,7.13a20.14,20.14,0,0,1-5.87-1.08c-.21-.81-.8-4.44-1.05-6.08l1.36-.31c.7,2.2,2.66,6,6.08,6a3.21,3.21,0,0,0,3.42-3.56c0-2-1.25-3.21-4.19-4.78-3.63-2-6-3.71-6-7.34s2.87-6.57,8.11-6.57a26.14,26.14,0,0,1,5,.63c.14,1.3.39,3.11.67,5.31Z"/><path class="cls-1" d="M447.64,292.88c-2.23.2-2.83.87-3,2.13a46,46,0,0,0-.17,4.68v4.57c0,3-.49,6-2.48,8.14a9,9,0,0,1-6.57,2.41A9.93,9.93,0,0,1,429.2,313c-2-1.53-3-3.66-3-7.58v-8.83c0-3.22-.32-3.46-3-3.7v-1.3H434v1.3c-2.62.24-2.93.48-2.93,3.7v9.29c0,3.91,1.92,6.5,5.65,6.5,4.16,0,6-3.08,6-8.32v-4.36c0-2.41-.11-3.67-.18-4.72-.14-1.61-1.12-2-3.56-2.09v-1.3h8.66Z"/><path class="cls-1" d="M469.09,291.58a11.43,11.43,0,0,1,6.29,1.44,5.84,5.84,0,0,1,2.72,5.23c0,5.07-4.3,7.2-8,7.23a7.78,7.78,0,0,1-1.05-.07l-2-.52v4.75c0,2.93.25,3.07,3.29,3.35v1.3H459.17V313c2.62-.31,3-.42,3-3.35V296.3c0-2.94-.35-3.25-3-3.42v-1.3ZM467,303.42a4.49,4.49,0,0,0,1.86.35c1.6,0,4.22-.94,4.22-5.55,0-3.91-2.13-5.2-4.4-5.2a2.17,2.17,0,0,0-1.36.34,1.34,1.34,0,0,0-.32,1.09Z"/><path class="cls-1" d="M500.6,291.58a11.37,11.37,0,0,1,6.28,1.44,5.83,5.83,0,0,1,2.73,5.23c0,5.07-4.3,7.2-8,7.23a7.78,7.78,0,0,1-1.05-.07l-2-.52v4.75c0,2.93.25,3.07,3.28,3.35v1.3h-11.1V313c2.62-.31,3-.42,3-3.35V296.3c0-2.94-.35-3.25-3-3.42v-1.3Zm-2.1,11.84a4.48,4.48,0,0,0,1.85.35c1.61,0,4.23-.94,4.23-5.55,0-3.91-2.13-5.2-4.4-5.2a2.17,2.17,0,0,0-1.36.34,1.34,1.34,0,0,0-.32,1.09Z"/><path class="cls-1" d="M540.7,308.14c-.28,1.5-1.26,5.2-1.58,6.15H521.8V313c3.07-.21,3.35-.45,3.35-3.38V296.3c0-2.94-.35-3.22-3-3.42v-1.3h10.89v1.3c-2.72.24-3.07.48-3.07,3.42v13.55c0,1.92.07,2.79,2,2.83.07,0,1.68,0,1.82,0,2,0,2.51-.42,3.35-1.36a14.77,14.77,0,0,0,2.2-3.63Z"/><path class="cls-1" d="M570.32,292.88c-2.24.24-3,.73-4.3,2.86s-2.34,4.09-4,7.58a3.56,3.56,0,0,0-.38,1.85v4.33c0,3,.27,3.14,3.14,3.49v1.3h-11V313c2.76-.35,3-.45,3-3.49v-4a3,3,0,0,0-.39-1.6c-1-2.06-2.3-4.4-4.4-8.07-1.29-2.27-1.82-2.73-3.84-2.93v-1.3H558.3v1.3c-2.34.31-2.27.76-1.67,2,1.15,2.27,2.65,5.06,4,7.61,1-2,2.72-5.31,3.7-7.44.66-1.4.38-1.85-2.13-2.16v-1.3h8.14Z"/><rect class="cls-1" y="175.95" width="640.69" height="1"/><rect class="cls-1" y="343.22" width="640.69" height="1"/><rect class="cls-1" x="601.25" y="298.52" width="8.47" height="8.47" transform="translate(391.42 -339.46) rotate(45)"/><rect class="cls-1" x="31.03" y="298.52" width="8.47" height="8.47" transform="translate(224.41 63.74) rotate(45)"/></g></g></svg>