<svg xmlns="http://www.w3.org/2000/svg" viewBox="0 0 22 22"><defs><style>.cls-1{fill:#fff;}</style></defs><g id="Layer_2" data-name="Layer 2"><g id="Layer_1-2" data-name="Layer 1"><path class="cls-1" d="M11,0A11,11,0,1,0,22,11,11,11,0,0,0,11,0Zm6.37,7a.34.34,0,0,1-.06.2,5.18,5.18,0,0,1-1,1.07c-.06,0-.16.09-.16.17A7.9,7.9,0,0,1,14,14.21,7.76,7.76,0,0,1,6.51,16a7.66,7.66,0,0,1-1.46-.58c-.15-.09-.3-.17-.45-.27s-.07-.06,0-.08.06,0,.18,0a5.23,5.23,0,0,0,2.18-.28A3.25,3.25,0,0,0,8.35,14l0,0-.29,0A2.84,2.84,0,0,1,6,12.18c0-.07,0-.1.07-.09a2.76,2.76,0,0,0,1,0,1.8,1.8,0,0,1-.33-.1A2.72,2.72,0,0,1,5,9.8a1.63,1.63,0,0,1,0-.31c0-.07,0-.09.1-.05a2.64,2.64,0,0,0,1,.29c-.12-.09-.22-.19-.33-.29a2.68,2.68,0,0,1-.46-3.17c.06-.07.09-.07.15,0A8.23,8.23,0,0,0,10.8,9s.06,0,0-.06a2.76,2.76,0,0,1,0-1.11,2.55,2.55,0,0,1,.52-1A2.87,2.87,0,0,1,12.27,6a2.77,2.77,0,0,1,1.09-.3,2.47,2.47,0,0,1,1.14.18,2.53,2.53,0,0,1,.75.46l.13.13a.11.11,0,0,0,.11,0A6.13,6.13,0,0,0,17,5.94a.06.06,0,0,1,.06,0s0,0,0,.06a2.52,2.52,0,0,1-.43.79c-.13.15-.43.53-.64.57A5.77,5.77,0,0,0,17.32,7c.05,0,.05,0,.05,0Z"/></g></g></svg>