<svg xmlns="http://www.w3.org/2000/svg" viewBox="0 0 511.99 511.8"><g id="Layer_2" data-name="Layer 2"><g id="Capa_1" data-name="Capa 1"><path d="M508.47,248.89l-46.94-34,30.34-49.33a8.55,8.55,0,0,0-5.28-12.78l-56.31-13.44,9.15-57.2a8.52,8.52,0,0,0-9.77-9.77l-57.21,9.15L359,25.21a8.52,8.52,0,0,0-12.76-5.29L296.93,50.25l-34-46.93c-3.22-4.43-10.61-4.43-13.81,0l-34,46.93L165.75,19.92A8.52,8.52,0,0,0,153,25.21l-13.44,56.3L82.33,72.36a8.52,8.52,0,0,0-9.77,9.77l9.16,57.19L25.41,152.76a8.55,8.55,0,0,0-5.29,12.78l30.34,49.33-46.94,34a8.55,8.55,0,0,0,0,13.83l46.94,34L20.12,346.05a8.53,8.53,0,0,0,5.29,12.76l56.3,13.45-9.16,57.21a8.53,8.53,0,0,0,9.77,9.77l57.21-9.16L153,486.39a8.54,8.54,0,0,0,12.77,5.29l49.33-30.34,34,46.93a8.53,8.53,0,0,0,13.82,0l34-46.93,49.32,30.34a8.58,8.58,0,0,0,7.73.61,8.47,8.47,0,0,0,5-5.9l13.44-56.31,57.21,9.16a8.53,8.53,0,0,0,9.77-9.77l-9.15-57.21,56.31-13.44a8.54,8.54,0,0,0,5.28-12.77l-30.34-49.32,46.94-34a8.55,8.55,0,0,0,0-13.83Zm-63.33,38.64a8.52,8.52,0,0,0-2.26,11.38l28.3,46-52.54,12.54a8.53,8.53,0,0,0-6.45,9.65l8.55,53.39L367.35,412a8.5,8.5,0,0,0-9.65,6.45L345.16,471l-46-28.3a8.54,8.54,0,0,0-11.38,2.26L256,488.72l-31.74-43.8a8.52,8.52,0,0,0-6.92-3.52,8.36,8.36,0,0,0-4.46,1.28l-46,28.29-12.54-52.54a8.51,8.51,0,0,0-9.65-6.44l-53.39,8.54,8.54-53.38a8.52,8.52,0,0,0-6.44-9.65L40.83,345l28.31-46a8.54,8.54,0,0,0-2.27-11.37L23.07,255.8l43.8-31.75a8.53,8.53,0,0,0,2.27-11.37l-28.31-46L93.37,154.1a8.53,8.53,0,0,0,6.44-9.65L91.27,91.07l53.39,8.54a8.57,8.57,0,0,0,9.65-6.44l12.54-52.54,46,28.3a8.52,8.52,0,0,0,11.38-2.26L256,22.87l31.75,43.8a8.53,8.53,0,0,0,11.38,2.26l46-28.32L357.7,93.15a8.53,8.53,0,0,0,9.65,6.45l53.39-8.55-8.54,53.39a8.52,8.52,0,0,0,6.44,9.65l52.54,12.54-28.3,46A8.53,8.53,0,0,0,445.14,224l43.8,31.74Z"/><path d="M409.6,208.86A29.9,29.9,0,0,0,379.73,179H324.27V136.33a51.25,51.25,0,0,0-51.2-51.2,8.53,8.53,0,0,0-8.54,8.53v56.2l-31.62,31.63h0l-28.1,28.1v-5a8.54,8.54,0,0,0-8.53-8.54H128a8.54,8.54,0,0,0-8.53,8.54V375.26A8.53,8.53,0,0,0,128,383.8h68.27a8.53,8.53,0,0,0,8.53-8.54v-8.53H362.67A29.86,29.86,0,0,0,387,319.54a29.83,29.83,0,0,0,5.09-46.68,29.8,29.8,0,0,0,3.44-38.65A29.87,29.87,0,0,0,409.6,208.86ZM187.73,366.73h-51.2V213.13h51.2v153.6Zm192-145.07H371.2a8.54,8.54,0,0,0,0,17.07,12.8,12.8,0,1,1,0,25.6,8.54,8.54,0,0,0,0,17.07,12.8,12.8,0,0,1,0,25.6h-8.53a8.53,8.53,0,1,0,0,17.06,12.8,12.8,0,1,1,0,25.6H204.8V233.73l37.67-37.67,2.5-2.5,34.13-34.13a8.53,8.53,0,0,0,2.5-6V103.27a34.21,34.21,0,0,1,25.6,33.06l0,59.73h72.57a12.8,12.8,0,0,1,0,25.6Z"/><rect x="153.6" y="332.6" width="17.07" height="17.07"/></g></g></svg>