<svg xmlns="http://www.w3.org/2000/svg" viewBox="0 0 550 550"><g id="Layer_2" data-name="Layer 2"><g id="Capa_1" data-name="Capa 1"><path d="M128,312.68h45.69a7.17,7.17,0,0,0,7.16-7.16v-46a7.17,7.17,0,0,0-7.16-7.16H148.19a7.19,7.19,0,0,0-6.56,4.29l-20.15,46a7.15,7.15,0,0,0,6.55,10Zm24.84-46h13.7v31.71H139Z"/><path d="M448.05,134.79H359.33a7.16,7.16,0,1,0,0,14.31H440.9V371.25H402.31c0-.87.07-1.75.07-2.64a46.56,46.56,0,1,0-93.11,0c0,.89,0,1.77.08,2.64H213V149.1h81.57a7.16,7.16,0,0,0,0-14.31H205.81a7.16,7.16,0,0,0-7.16,7.16v78.28H127.23a7.16,7.16,0,0,0-6.56,4.28L89.39,295.92a7.24,7.24,0,0,0-.6,2.87v79.62A7.16,7.16,0,0,0,96,385.56H117.1a36.2,36.2,0,0,0,71.2,0H312.46a46.54,46.54,0,0,0,86.73,0h48.86a7.16,7.16,0,0,0,7.16-7.15V142a7.17,7.17,0,0,0-7.16-7.16Zm-345,165.5,28.8-65.75h66.75V371.25H188.07a36.2,36.2,0,0,0-70.74,0H103.1ZM152.7,400.9A21.92,21.92,0,1,1,174.59,379,21.93,21.93,0,0,1,152.7,400.9Zm203.13,0a32.29,32.29,0,1,1,32.24-32.29A32.3,32.3,0,0,1,355.83,400.9Z"/><path d="M320.45,144.69a7.16,7.16,0,1,0,2.84-8.82,7.23,7.23,0,0,0-2.84,8.82Z"/><path d="M263.15,235.69a7.16,7.16,0,1,0,0-14.31h-26a7.16,7.16,0,0,0-7.16,7.15v64.13a7.16,7.16,0,1,0,14.32,0V267.15h16.77a7.16,7.16,0,0,0,0-14.31H244.32V235.69Z"/><path d="M364.72,235.81a7.16,7.16,0,0,0,0-14.32h-27a7.16,7.16,0,0,0-7.15,7.16v64a7.15,7.15,0,0,0,7.15,7.16h27a7.16,7.16,0,0,0,0-14.31H344.9v-17.7h17.83a7.16,7.16,0,0,0,0-14.31H344.9V235.81Z"/><path d="M416.7,235.81a7.16,7.16,0,0,0,0-14.32h-27a7.16,7.16,0,0,0-7.16,7.16v64a7.15,7.15,0,0,0,7.16,7.16h27a7.16,7.16,0,0,0,0-14.31H396.88v-17.7h17.83a7.16,7.16,0,1,0,0-14.31H396.88V235.81Z"/><path d="M281.93,220.53h0a7.17,7.17,0,0,0-7.16,7.16v64.6a7.16,7.16,0,1,0,14.32,0V271.57L311.47,297a7.15,7.15,0,1,0,10.74-9.45l-17.4-19.78c11-2.49,19.18-12,19.18-23.31,0-13.2-11.16-23.95-24.89-23.95Zm27.75,23.95c0,5.22-4.85,9.63-10.58,9.63l-9.93,0c0-3.52,0-7.46,0-9.67,0-1.89,0-6,0-9.63h10c5.73,0,10.58,4.41,10.58,9.63Z"/><path d="M275,550A274.91,274.91,0,0,1,80.55,80.55,275,275,0,1,1,382,528.39,273.27,273.27,0,0,1,275,550Zm0-537.12A262.19,262.19,0,0,0,173,516.52,262.19,262.19,0,0,0,377,33.48,260.42,260.42,0,0,0,275,12.88Z"/></g></g></svg>