<?xml version="1.0" encoding="utf-8"?>
<!-- Generator: Adobe Illustrator 24.1.2, SVG Export Plug-In . SVG Version: 6.00 Build 0)  -->
<svg version="1.1" id="Layer_1" xmlns="http://www.w3.org/2000/svg" xmlns:xlink="http://www.w3.org/1999/xlink" x="0px" y="0px"
	 viewBox="0 0 550 550" style="enable-background:new 0 0 550 550;" xml:space="preserve">
<g id="Layer_2_1_">
	<g id="Capa_1">
		<path d="M275,550C123.2,550.1,0,427.1-0.1,275.3c-0.1-73.1,29-143.1,80.7-194.7C188-26.8,362.1-26.7,469.5,80.7
			s107.3,281.6-0.2,388.9c-25,25-54.7,45-87.3,58.7C348.1,542.7,311.8,550.1,275,550z M275,12.9C130.2,13,12.9,130.5,13,275.3
			c0.1,105.2,63.1,200.2,160,241.2c134,54.9,287.1-9.2,342-143.2c54.1-132-7.2-283-138-339.9C344.7,19.8,310,12.8,275,12.9z"/>
	</g>
</g>
<g>
	<path d="M187.8,255.4l-11,1v-42.6l-13.7,6.9v-11.1l24.8-12.3V255.4z"/>
	<path d="M248.1,221.1c0,18.5-11,30.7-24.7,32c-13.7,1.3-24.7-8.8-24.7-27.3c0-18.5,11-30.7,24.7-32
		C237.1,192.5,248.1,202.5,248.1,221.1z M210.3,224.7c0,12.5,5.8,18.5,13.2,17.8c7.4-0.7,13.2-7.8,13.2-20.3
		c0-12.5-5.8-18.5-13.2-17.8C216.1,205,210.3,212.1,210.3,224.7z"/>
	<path d="M305.9,215.6c0,18.5-11,30.7-24.7,32c-13.7,1.3-24.7-8.8-24.7-27.3c0-18.5,11-30.7,24.7-32
		C294.9,187,305.9,197.1,305.9,215.6z M268,219.2c0,12.5,5.8,18.5,13.2,17.8c7.4-0.7,13.2-7.8,13.2-20.3c0-12.5-5.8-18.5-13.2-17.8
		C273.9,199.6,268,206.7,268,219.2z"/>
	<path d="M345.1,197.8c0,9-6.8,16.3-16,17.2c-9.1,0.9-16-5.2-16-14.2c0-8.9,6.8-16.2,16-17.1C338.2,182.9,345.1,188.9,345.1,197.8z
		 M322.2,200c0,4.2,2.9,6.8,6.9,6.5c4-0.4,6.9-3.6,6.9-7.8c0-4.1-2.9-6.8-6.9-6.4C325.1,192.7,322.2,195.9,322.2,200z M336.7,241.3
		l-10.7,1l38.4-60.9l10.7-1L336.7,241.3z M388.1,221.9c0,9-6.8,16.3-16,17.1c-9.1,0.9-16-5.2-16-14.1c0-8.8,6.8-16.3,16-17.1
		C381.2,206.9,388.1,213,388.1,221.9z M365.2,224c0,4.1,2.9,6.8,6.9,6.4c4-0.4,6.9-3.6,6.9-7.7s-2.9-6.8-6.9-6.4
		C368.1,216.7,365.2,219.9,365.2,224z"/>
	<path d="M77.2,329.8l27.6-2.6v-23.1l11.4-1.1v57.3l-11.4,1.1v-23.6l-27.6,2.6V364l-11.4,1.1v-57.3l11.4-1.1V329.8z"/>
	<path d="M167.4,355.5l-10.4,1v-4.4c-2.6,3.4-6.4,6-11.9,6.5c-10.9,1-19.2-7.1-19.2-19s8.3-21.6,19.2-22.7c5.4-0.5,9.2,1.3,11.9,4.3
		v-4.4l10.4-1V355.5z M136.8,338.6c0,6.1,4,10.5,10.2,10c6.1-0.6,10.2-5.6,10.2-11.9s-4.1-10.5-10.2-10
		C140.8,327.3,136.8,332.5,136.8,338.6z"/>
	<path d="M216,325.7v25.2l-10.7,1v-21.8c0-5.7-2.9-8.6-7.7-8.1c-4.6,0.4-8.4,3.8-8.4,9.8v21.7l-10.7,1v-39.6l10.4-1v4.7
		c2.8-4.5,7.2-6.4,11.7-6.8C209.6,310.8,216,316.5,216,325.7z"/>
	<path d="M255.3,311.7v-23.4l10.6-1v58.9l-10.4,1v-4.4c-2.6,3.4-6.4,6-11.9,6.5c-10.9,1-19.2-7.1-19.2-19s8.3-21.6,19.2-22.7
		C249,307.1,252.7,308.8,255.3,311.7z M235.4,329.3c0,6.1,4,10.5,10.2,10c6.1-0.6,10.2-5.6,10.2-11.9s-4.1-10.5-10.2-10
		C239.3,318,235.4,323.2,235.4,329.3z"/>
	<path d="M341.4,313.8v25.2l-10.6,1v-21.8c0-5.7-2.9-8.6-7.7-8.1c-4.6,0.4-8.4,3.8-8.4,9.8v21.7l-10.7,1v-21.8
		c0-5.7-2.9-8.6-7.7-8.1c-4.6,0.4-8.4,3.8-8.4,9.8v21.7l-10.7,1v-39.6l10.4-1v4.7c2.8-4.5,7.2-6.4,11.7-6.8
		c5.7-0.5,10.4,1.6,13.1,5.6c3.1-5.3,8.3-7.6,13.5-8.1C335.1,299,341.4,304.6,341.4,313.8z"/>
	<path d="M391.3,334.4l-10.4,1V331c-2.6,3.4-6.4,6-11.9,6.5c-10.9,1-19.2-7.1-19.2-19s8.3-21.6,19.2-22.7c5.4-0.5,9.2,1.3,11.9,4.3
		v-4.4l10.4-1V334.4z M360.7,317.4c0,6.1,4,10.5,10.2,10c6.1-0.6,10.2-5.6,10.2-11.9s-4.1-10.5-10.2-10
		C364.7,306.1,360.7,311.3,360.7,317.4z"/>
	<path d="M430.9,295.1v-23.4l10.6-1v58.9l-10.4,1v-4.4c-2.6,3.4-6.4,6-11.9,6.5c-10.9,1-19.2-7.1-19.2-19s8.3-21.6,19.2-22.7
		C424.5,290.5,428.3,292.2,430.9,295.1z M411,312.7c0,6.1,4,10.5,10.2,10c6.1-0.6,10.2-5.6,10.2-11.9s-4.1-10.5-10.2-10
		C414.9,301.4,411,306.6,411,312.7z"/>
	<path d="M489.6,305.2c0,1.2-0.1,2.7-0.2,3.6l-28.1,2.7c1.1,5.6,5.2,7.7,10.2,7.3c3.4-0.3,7.2-2.1,10-4.8l6.3,6.3
		c-4.5,4.6-10.2,7-16.9,7.6c-12.2,1.1-20.6-6.3-20.6-18.8c0-12.5,8.2-21.8,20-22.9C481.7,285.1,489.5,292.8,489.6,305.2z
		 M461.3,304.2l17.6-1.7c-1-5-4-7.6-8.6-7.1C465.2,295.9,462.3,299.2,461.3,304.2z"/>
</g>
</svg>
