<?xml version="1.0" encoding="utf-8"?>
<!-- Generator: Adobe Illustrator 24.1.2, SVG Export Plug-In . SVG Version: 6.00 Build 0)  -->
<svg version="1.1" id="Capa_1" xmlns="http://www.w3.org/2000/svg" xmlns:xlink="http://www.w3.org/1999/xlink" x="0px" y="0px"
	 viewBox="0 0 900.6 900.3" style="enable-background:new 0 0 900.6 900.3;" xml:space="preserve">
<g>
	<path d="M672.4,525.3c-6.3-5.7-14.3-8.3-22.4-7.3c-7.2,0.8-15.5,2.2-24.6,4V296.3c0-15.4-12.5-27.9-27.9-27.9h-44.6v-27
		c0-34-27.7-61.7-61.7-61.7c-34,0-61.7,27.7-61.7,61.7v27h-44.6c-15.4,0-27.9,12.5-27.9,27.9v144.5c-19.7,3.4-44.8,11.2-65.1,28.5
		c-6.7,5.7-12,11.1-16.3,16c-4.5-5.6-11.4-9.2-19.2-9.2h-34.9c-5.8,0-10.5,4.7-10.5,10.5v148.3c0,2.8,1.1,5.5,3.1,7.4
		c2,2,4.6,3.1,7.4,3.1l34.9,0c13.5,0,24.5-11,24.5-24.5v-8.1c10.5,0.7,34.1,3.2,84.3,12.7c59.2,11.1,96.1,14.9,125.2,14.9
		c20.9,0,37.7-1.9,55.8-4.5c22.4-3.2,50.5-11.1,75.4-18.1c11.5-3.3,22.4-6.3,32-8.7c25.9-6.5,29.8-22.9,29.8-32v-26.7
		C683.5,540.8,679.3,531.5,672.4,525.3z M450.5,241.4c0-22.4,18.3-40.7,40.7-40.7c22.4,0,40.7,18.3,40.7,40.7v27l-81.4,0
		L450.5,241.4L450.5,241.4z M378.1,296.3c0-3.8,3.1-6.9,6.9-6.9h44.6v23.2c0,5.8,4.7,10.5,10.5,10.5c5.8,0,10.5-4.7,10.5-10.5v-23.2
		l81.4,0v23.2c0,5.8,4.7,10.5,10.5,10.5s10.5-4.7,10.5-10.5v-23.2h44.6c3.8,0,6.9,3.1,6.9,6.9v228.8c0,0.3,0,0.7,0.1,1
		c-1.6,0.3-3.2,0.7-4.8,1c-25.5,5.3-51.8,10.7-72,12c-17.4,1.1-49.2-3.5-58.6-8.4c-6.3-3.3-9.9-7.4-11.9-11h39.1
		c16.1,0,29.3-13.1,29.3-29.3v-23c0-16.1-13.1-29.3-29.3-29.3H389.1c-1.1,0-5.1-0.1-11,0.2L378.1,296.3L378.1,296.3z M260.1,620.9
		c0,1.9-1.6,3.5-3.5,3.5l-24.4,0V497.1h24.4c1.9,0,3.5,1.6,3.5,3.5L260.1,620.9L260.1,620.9z M662.5,576.9c0,2.2,0,8.2-13.9,11.7
		c-9.9,2.5-20.9,5.6-32.6,8.9c-24.2,6.8-51.6,14.6-72.6,17.6c-41.3,5.8-75.8,8.2-174.2-10.2c-50.6-9.5-75.8-12.4-88.1-13v-78
		c0.4-0.5,0.7-1,1-1.5c2.7-4.9,9.3-14.9,23.5-27.1c32.4-27.6,82.4-26.1,82.9-26.1c0.1,0,0.3,0,0.4,0h107.4c4.6,0,8.3,3.7,8.3,8.3v23
		c0,4.6-3.7,8.3-8.3,8.3H388.9c-5.8,0-10.5,4.7-10.5,10.5s4.7,10.5,10.5,10.5h46c2.2,8.6,8.1,21.1,24.4,29.6
		c14.9,7.8,51.9,11.8,69.6,10.7c21.7-1.4,48.7-6.9,74.9-12.3c18.4-3.8,35.8-7.4,48.5-8.8c2.7-0.3,4.8,1,6,2.1
		c2.5,2.3,4.1,5.8,4.1,9.3L662.5,576.9L662.5,576.9z"/>
	<path d="M896,441l-7-5.1l0.1,0l-79.3-57.5l55.8-90.7c1.6-2.5,2-5.5,1.3-8.4c-0.7-2.9-2.5-5.4-5-6.9c-1-0.6-2.1-1.1-3.2-1.3
		l-103.5-24.7l16.8-105.2c1-6.1-3.2-11.8-9.2-12.8c-1.2-0.2-2.4-0.2-3.5,0L654,145.2L629.2,41.7c-0.7-2.9-2.5-5.3-5-6.9
		c-2.5-1.6-5.5-2-8.4-1.4c-1.2,0.3-2.3,0.7-3.3,1.4l-90.7,55.8L459.4,4.2c-1.9-2.7-5.3-4.2-9-4.2c0,0,0,0,0,0c-3.7,0-7.1,1.6-9,4.2
		l-62.5,86.3l-90.8-55.8c-5.2-3.2-12.1-1.6-15.3,3.7c-0.6,1-1.1,2.1-1.3,3.3l-24.7,103.5l-105.2-16.8c-6.1-1-11.8,3.1-12.8,9.2
		c-0.2,1.2-0.2,2.4,0,3.5l16.8,105.2L42,271c-6,1.4-9.7,7.5-8.2,13.5c0.3,1.1,0.7,2.2,1.3,3.2l55.8,90.7L4.6,440.9
		c-5,3.6-6.1,10.6-2.5,15.6c0.7,0.9,1.5,1.8,2.5,2.5l86.3,62.5l-55.8,90.7c-1.6,2.5-2,5.5-1.3,8.4s2.5,5.3,5,6.9
		c1,0.6,2.1,1.1,3.2,1.3l103.5,24.7l-16.8,105.2c-0.5,2.9,0.2,5.9,2,8.3c1.7,2.4,4.3,4,7.3,4.5c1.2,0.2,2.4,0.2,3.5,0l105.2-16.8
		l24.8,103.5c0.7,2.9,2.5,5.4,5,6.9c2.5,1.6,5.5,2,8.4,1.3c1.1-0.3,2.2-0.7,3.2-1.3l90.7-55.8l62.5,86.3c1.7,2.4,4.3,4,7.3,4.5
		c2.9,0.5,5.9-0.2,8.3-2c1-0.7,1.8-1.5,2.5-2.5l62.5-86.3l90.7,55.8c3,1.8,6.8,2.1,10.1,0.8c3.3-1.4,5.7-4.2,6.5-7.7l24.7-103.6
		l105.2,16.8c6.1,1,11.8-3.2,12.8-9.2c0.2-1.2,0.2-2.4,0-3.5L755,653.6l103.5-24.7c2.9-0.7,5.3-2.5,6.9-5c1.6-2.5,2-5.5,1.3-8.4
		c-0.3-1.1-0.7-2.2-1.3-3.2l-55.8-90.7L896,459c2.4-1.8,4-4.3,4.5-7.3s-0.2-5.9-2-8.3C897.7,442.5,896.9,441.7,896,441z
		 M788.3,509.5c-4.7,3.4-6,9.9-2.9,14.9l53.1,86.3l-98.6,23.5c-5.6,1.3-9.3,6.9-8.4,12.6l16,100.2l-100.2-15.9
		c-5.8-0.9-11.3,2.8-12.6,8.4l-23.5,98.7l-86.3-53.1c-4.9-3-11.5-1.7-14.9,3l-59.6,82.1L390.8,788c-2.1-2.9-5.5-4.6-9-4.6
		c0,0,0,0,0,0c-2.1,0-4.1,0.6-5.8,1.7l-86.4,53.1L266,739.5c-1.3-5.7-6.9-9.3-12.6-8.4l-100.2,16l16-100.2
		c0.9-5.7-2.8-11.3-8.4-12.6l-98.7-23.5l53.1-86.3c3-4.9,1.7-11.4-3-14.8L30.1,450l82.2-59.6c4.7-3.4,6-9.9,3-14.8l-53.1-86.3
		l98.6-23.6c5.6-1.3,9.3-6.9,8.4-12.6l-16-100.2l100.2,16c5.7,0.9,11.2-2.8,12.6-8.4l23.5-98.6l86.3,53.1c4.9,3,11.5,1.8,14.9-2.9
		l59.6-82.2l59.6,82.2c3.4,4.7,9.9,6,14.9,3l86.3-53.2l23.6,98.6c1.3,5.6,6.9,9.4,12.6,8.4l100.2-16l-16,100.2
		c-0.9,5.7,2.8,11.3,8.4,12.6l98.6,23.5l-53.1,86.3c-3,4.9-1.7,11.4,3,14.8l82.2,59.6L788.3,509.5z"/>
</g>
</svg>
